<svg xmlns="http://www.w3.org/2000/svg" height="24" viewBox="0 -960 960 960" width="24"><path d="M746.922-318.653q-70.461-.77-121.346-43.847-50.884-43.076-62.961-113.73H432.769l-34.461-55.96h164.307q3.923-27.501 18.577-56.213 14.654-28.712 38.309-46.981H337l-34.461-55.96h344.23l-54.32-150.579q-1.538-3.847-4.615-5.962-3.077-2.116-6.924-2.116H444.616v-55.96h136.19q22.073 0 39.052 12.219t24.602 32.165l62.569 169.425h39.893q78.247 0 132.104 54.541 53.857 54.542 53.857 132.997 0 76.926-54.767 131.444-54.767 54.517-131.194 54.517Zm.045-55.961q54.686 0 92.321-37.666 37.635-37.667 37.635-92.334 0-55.308-37.346-93.039-37.347-37.731-92.649-37.731-5.237 0-10.756.769-5.52.769-9.212 1.539l40.461 107.615-52.729 20.154-38.77-107.385q-28.231 17.577-43.616 47.519-15.385 29.943-15.385 60.73 0 54.496 37.68 92.163 37.681 37.666 92.366 37.666ZM295.268-52.462q-44.536 0-75.593-31.141-31.058-31.141-31.058-75.628 0-3.077.385-5.385.384-2.308 1.154-5.385H29.425v-55.96h182.333q14.051-16.961 35.957-28.5 21.906-11.538 47.743-11.538 23.005 0 45.101 9.827 22.096 9.826 38.519 30.211h108.038q5.385 0 8.846-3.462 3.462-3.461 3.462-8.846v-73.461q0-5.385-3.462-8.847-3.461-3.461-8.846-3.461H29.425v-55.961h80v-130h-80v-55.96h260.191l112.307 185.96h85.193q28.16 0 48.214 20.054t20.054 48.215v73.461q0 28.16-20.054 48.214t-48.214 20.054H410q-2.154 3.077-3.634 5.385-1.481 2.308-4.212 5.385 0 44.487-31.175 75.628-31.175 31.14-75.711 31.14ZM165.385-380h171.04l-77.26-130h-93.78v130Zm130.001 271.577q21.038 0 35.923-14.885 14.885-14.885 14.885-35.924 0-21.038-14.885-35.923-14.885-14.885-35.923-14.885-21.039 0-35.924 14.885-14.885 14.885-14.885 35.923 0 21.039 14.885 35.924 14.885 14.885 35.924 14.885ZM264.424-275Z"/></svg>